<svg width="20" height="20" viewBox="0 0 20 20" fill="none" xmlns="http://www.w3.org/2000/svg">
<path d="M1.875 5.9375C1.875 5.42 2.295 5 2.8125 5H7.8125C8.33 5 8.75 5.42 8.75 5.9375V9.0625C8.75 9.58 8.33 10 7.8125 10H2.8125C2.56386 10 2.3254 9.90123 2.14959 9.72541C1.97377 9.5496 1.875 9.31114 1.875 9.0625V5.9375ZM11.875 7.1875C11.875 6.67 12.295 6.25 12.8125 6.25H17.1875C17.705 6.25 18.125 6.67 18.125 7.1875V14.0625C18.125 14.58 17.705 15 17.1875 15H12.8125C12.5639 15 12.3254 14.9012 12.1496 14.7254C11.9738 14.5496 11.875 14.3111 11.875 14.0625V7.1875ZM3.125 13.4375C3.125 12.92 3.545 12.5 4.0625 12.5H8.4375C8.955 12.5 9.375 12.92 9.375 13.4375V15.3125C9.375 15.83 8.955 16.25 8.4375 16.25H4.0625C3.81386 16.25 3.5754 16.1512 3.39959 15.9754C3.22377 15.7996 3.125 15.5611 3.125 15.3125V13.4375Z" stroke="#6B7280" stroke-width="1.5" stroke-linecap="round" stroke-linejoin="round"/>
</svg>
