<svg width="27" height="27" viewBox="0 0 27 27" fill="none" xmlns="http://www.w3.org/2000/svg">
<path opacity="0.4" d="M0 5.92933C0 2.66133 2.70698 0 6.03271 0H12.6475C15.9665 0 18.6667 2.65333 18.6667 5.916V20.7373C18.6667 24.0067 15.9597 26.6667 12.6326 26.6667H6.0205C2.7002 26.6667 0 24.0133 0 20.7507V19.4973V5.92933Z" fill="#6B7280"/>
<path d="M26.3716 12.6066L22.5772 8.72789C22.1851 8.32789 21.554 8.32789 21.1631 8.73056C20.7736 9.13322 20.7748 9.78256 21.1657 10.1826L23.2447 12.3066H21.2514H10.0643C9.51246 12.3066 9.06445 12.7666 9.06445 13.3332C9.06445 13.9012 9.51246 14.3599 10.0643 14.3599H23.2447L21.1657 16.4839C20.7748 16.8839 20.7736 17.5332 21.1631 17.9359C21.3592 18.1372 21.615 18.2386 21.8721 18.2386C22.1266 18.2386 22.3825 18.1372 22.5772 17.9386L26.3716 14.0612C26.5599 13.8679 26.6664 13.6066 26.6664 13.3332C26.6664 13.0612 26.5599 12.7999 26.3716 12.6066Z" fill="#6B7280"/>
</svg>
