<svg width="20" height="18" viewBox="0 0 20 18" fill="none" xmlns="http://www.w3.org/2000/svg">
<path d="M7.34921 11.8575C3.38547 11.8575 0 12.4698 0 14.9171C0 17.3663 3.36394 17.9997 7.34921 17.9997C11.313 17.9997 14.6984 17.3874 14.6984 14.9401C14.6984 12.4909 11.3345 11.8575 7.34921 11.8575Z" fill="#6B7280"/>
<path opacity="0.4" d="M7.34947 9.52467C10.049 9.52467 12.2124 7.40605 12.2124 4.76233C12.2124 2.11862 10.049 0 7.34947 0C4.65088 0 2.48653 2.11862 2.48653 4.76233C2.48653 7.40605 4.65088 9.52467 7.34947 9.52467Z" fill="#6B7280"/>
<path opacity="0.4" d="M14.1733 4.84866C14.1733 6.19496 13.7604 7.45118 13.0363 8.49468C12.961 8.602 13.0275 8.74669 13.1586 8.76968C13.3406 8.79939 13.5275 8.81759 13.7183 8.82143C15.6165 8.8703 17.32 7.67348 17.7907 5.87108C18.4883 3.1967 16.4414 0.79541 13.8338 0.79541C13.551 0.79541 13.28 0.824157 13.0158 0.876859C12.9796 0.884524 12.9404 0.901772 12.9209 0.932435C12.8954 0.971722 12.914 1.02251 12.9395 1.05604C13.7232 2.13212 14.1733 3.442 14.1733 4.84866Z" fill="#6B7280"/>
<path d="M19.7791 12.1691C19.4318 11.4437 18.5932 10.9464 17.3173 10.7021C16.7155 10.5583 15.0854 10.3542 13.5698 10.383C13.5473 10.3859 13.5346 10.4012 13.5326 10.4108C13.5297 10.4261 13.5365 10.4491 13.5659 10.4654C14.2665 10.8046 16.9739 12.2803 16.6334 15.3925C16.6187 15.5286 16.7292 15.6436 16.8672 15.6244C17.5335 15.5315 19.2478 15.1702 19.7791 14.0472C20.0736 13.4531 20.0736 12.7632 19.7791 12.1691Z" fill="#6B7280"/>
</svg>
