<svg width="23" height="27" viewBox="0 0 23 27" fill="none" xmlns="http://www.w3.org/2000/svg">
<path d="M21.6927 12.8604C20.7187 11.7231 20.2761 10.7374 20.2761 9.06287V8.49351C20.2761 6.31138 19.7739 4.90542 18.6819 3.49946C16.999 1.31599 14.1658 0 11.3923 0H11.2744C8.55914 0 5.81475 1.25556 4.10266 3.3504C2.95111 4.78456 2.39057 6.25095 2.39057 8.49351V9.06287C2.39057 10.7374 1.97712 11.7231 0.973984 12.8604C0.235876 13.6984 0 14.7753 0 15.9409C0 17.1079 0.382968 18.213 1.15155 19.1114C2.15469 20.1884 3.57128 20.8759 5.01834 20.9954C7.1134 21.2344 9.20846 21.3244 11.334 21.3244C13.4582 21.3244 15.5533 21.174 17.6497 20.9954C19.0954 20.8759 20.512 20.1884 21.5151 19.1114C22.2824 18.213 22.6667 17.1079 22.6667 15.9409C22.6667 14.7753 22.4308 13.6984 21.6927 12.8604Z" fill="#fde047"/>
<path opacity="0.4" d="M14.0114 22.9713C13.3448 22.8289 9.28322 22.8289 8.61667 22.9713C8.04686 23.1029 7.43066 23.409 7.43066 24.0804C7.46379 24.721 7.83881 25.2863 8.35827 25.6449L8.35694 25.6462C9.02879 26.1699 9.81726 26.5029 10.6428 26.6225C11.0828 26.6829 11.5307 26.6802 11.9865 26.6225C12.8108 26.5029 13.5992 26.1699 14.2711 25.6462L14.2698 25.6449C14.7892 25.2863 15.1642 24.721 15.1974 24.0804C15.1974 23.409 14.5812 23.1029 14.0114 22.9713Z" fill="#fde047"/>
</svg>
