<svg width="20" height="20" viewBox="0 0 20 20" fill="none" xmlns="http://www.w3.org/2000/svg">
<path d="M8.15273 3.55559C8.20366 3.65925 8.2373 3.77027 8.25236 3.8844L8.5308 8.0243L8.66901 10.1051C8.67043 10.3191 8.70401 10.5317 8.76864 10.7361C8.93557 11.1326 9.33713 11.3846 9.77402 11.367L16.4313 10.9316C16.7196 10.9268 16.9979 11.0346 17.2052 11.2313C17.3779 11.3952 17.4894 11.6096 17.5245 11.8402L17.5363 11.9802C17.2608 15.7949 14.4591 18.9767 10.6523 19.798C6.84553 20.6193 2.94185 18.8843 1.06071 15.5349C0.518386 14.5618 0.17965 13.4923 0.0643817 12.389C0.0162285 12.0624 -0.0049745 11.7325 0.000979222 11.4026C-0.00496593 7.31278 2.90746 3.77701 6.98431 2.92463C7.47498 2.84822 7.956 3.10798 8.15273 3.55559Z" fill="#6B7280"/>
<path opacity="0.4" d="M10.87 0.000819183C15.4299 0.116826 19.2623 3.39578 20 7.81227L19.993 7.84485L19.9728 7.89225L19.9756 8.02234C19.9652 8.19469 19.8986 8.36051 19.784 8.49446C19.6645 8.63398 19.5013 8.729 19.3216 8.76588L19.212 8.78092L11.5312 9.27858C11.2758 9.30378 11.0214 9.22139 10.8314 9.05193C10.6731 8.9107 10.5718 8.72007 10.5432 8.51465L10.0277 0.84506C10.0187 0.819126 10.0187 0.791013 10.0277 0.765079C10.0347 0.55367 10.1278 0.353839 10.2861 0.210229C10.4444 0.0666196 10.6547 -0.00880034 10.87 0.000819183Z" fill="#6B7280"/>
</svg>
