<svg width="16" height="19" viewBox="0 0 16 19" fill="none" xmlns="http://www.w3.org/2000/svg">
<path opacity="0.4" d="M14.4083 6.608C13.9833 6.608 13.4205 6.59859 12.7197 6.59859C11.0105 6.59859 9.60522 5.184 9.60522 3.45882V0.432C9.60522 0.193882 9.41511 0 9.17933 0H4.20106C1.8778 0 0 1.90682 0 4.24376V14.3849C0 16.8367 1.96727 18.8235 4.3949 18.8235H11.8083C14.1231 18.8235 16 16.9289 16 14.5901V7.03153C16 6.79247 15.8108 6.59953 15.5741 6.60047C15.1762 6.60329 14.6991 6.608 14.4083 6.608Z" fill="#000000"/>
<path opacity="0.4" d="M11.8435 0.533916C11.5621 0.24121 11.0708 0.442622 11.0708 0.848269V3.33015C11.0708 4.37109 11.9282 5.22756 12.9691 5.22756C13.6251 5.23509 14.5362 5.23697 15.3098 5.23509C15.7061 5.23415 15.9075 4.76074 15.6327 4.47462C14.6397 3.44215 12.8618 1.5918 11.8435 0.533916Z" fill="#000000"/>
<path d="M10.2758 12.1344C10.6627 12.1344 10.977 12.4487 10.977 12.8356C10.977 13.2224 10.6627 13.5358 10.2758 13.5358H5.15208C4.76526 13.5358 4.45185 13.2224 4.45185 12.8356C4.45185 12.4487 4.76526 12.1344 5.15208 12.1344H10.2758ZM8.33787 7.43396C8.72469 7.43396 9.03904 7.74831 9.03904 8.13514C9.03904 8.52196 8.72469 8.83537 8.33787 8.83537H5.15199C4.76516 8.83537 4.45175 8.52196 4.45175 8.13514C4.45175 7.74831 4.76516 7.43396 5.15199 7.43396H8.33787Z" fill="#000000"/>
</svg>
