<svg width="18" height="18" viewBox="0 0 18 18" fill="none" xmlns="http://www.w3.org/2000/svg">
<path opacity="0.4" d="M13.3954 2.80325H10.7467C10.0869 2.80761 9.4604 2.51409 9.04227 2.00467L8.17005 0.798829C7.75892 0.28494 7.13248 -0.00994935 6.47363 0.000256451H4.60116C1.24032 0.000256451 7.25274e-07 1.97273 7.25274e-07 5.32673V8.95225C-0.00417166 9.35096 17.9953 9.35046 17.9965 8.95225V7.89814C18.0125 4.54413 16.8042 2.80325 13.3954 2.80325Z" fill="#000000"/>
<path d="M13.3873 2.80324C14.5616 2.71243 15.7271 3.06593 16.6522 3.79347C16.7587 3.88381 16.8577 3.98263 16.9482 4.08895C17.2362 4.4256 17.4587 4.81287 17.6044 5.2309C17.8911 6.09008 18.0238 6.99297 17.9965 7.89814V12.6257C17.9953 13.0239 17.9659 13.4215 17.9085 13.8156C17.7991 14.511 17.5544 15.1783 17.1883 15.78C17.02 16.0707 16.8157 16.339 16.5801 16.5786C15.5138 17.5572 14.0979 18.0666 12.6512 17.9921H5.33733C3.88829 18.0661 2.47005 17.5569 1.40035 16.5786C1.16762 16.3385 0.96599 16.0702 0.800201 15.78C0.436257 15.1788 0.196812 14.5108 0.0960248 13.8156C0.0319383 13.4222 0 13.0242 0 12.6257V7.89814C0 7.50331 0.0212142 7.10876 0.0640168 6.71625C0.0880228 6.53258 0.144037 6.35689 0.144037 6.18121C0.225266 5.70753 0.373447 5.24776 0.584147 4.81565C1.2083 3.48203 2.48862 2.80324 4.58515 2.80324H13.3873ZM13.6034 10.7011H4.47312C4.06211 10.7011 3.72893 11.0336 3.72893 11.4438C3.72893 11.854 4.06211 12.1865 4.47312 12.1865H13.5474C13.7461 12.1951 13.9401 12.124 14.0859 11.9889C14.2318 11.8539 14.3173 11.6662 14.3236 11.4678C14.3348 11.2933 14.2774 11.1214 14.1635 10.9886C14.0326 10.8101 13.825 10.7036 13.6034 10.7011Z" fill="#000000"/>
</svg>
