<svg width="32" height="32" viewBox="0 0 32 32" fill="none" xmlns="http://www.w3.org/2000/svg">
<path opacity="0.4" d="M21.7675 3H26.2821C28.1518 3 29.6668 4.5278 29.6668 6.41328V10.966C29.6668 12.8515 28.1518 14.3793 26.2821 14.3793H21.7675C19.8978 14.3793 18.3828 12.8515 18.3828 10.966V6.41328C18.3828 4.5278 19.8978 3 21.7675 3Z" fill="#FDE047"/>
<path d="M10.8993 18.2873C12.769 18.2873 14.284 19.8152 14.284 21.7006V26.2534C14.284 28.1376 12.769 29.6667 10.8993 29.6667H6.3847C4.51501 29.6667 3 28.1376 3 26.2534V21.7006C3 19.8152 4.51501 18.2873 6.3847 18.2873H10.8993ZM26.282 18.2873C28.1517 18.2873 29.6667 19.8152 29.6667 21.7006V26.2534C29.6667 28.1376 28.1517 29.6667 26.282 29.6667H21.7673C19.8977 29.6667 18.3826 28.1376 18.3826 26.2534V21.7006C18.3826 19.8152 19.8977 18.2873 21.7673 18.2873H26.282ZM10.8993 3C12.769 3 14.284 4.5278 14.284 6.41328V10.966C14.284 12.8515 12.769 14.3793 10.8993 14.3793H6.3847C4.51501 14.3793 3 12.8515 3 10.966V6.41328C3 4.5278 4.51501 3 6.3847 3H10.8993Z" fill="#FDE047"/>
</svg>
