<svg width="18" height="19" viewBox="0 0 18 19" fill="none" xmlns="http://www.w3.org/2000/svg">
<path d="M6.29406 17.7936V14.8881C6.29405 14.1519 6.89274 13.5537 7.63431 13.5491H10.3572C11.1021 13.5491 11.7059 14.1486 11.7059 14.8881V17.7852C11.7059 18.4237 12.2249 18.9427 12.868 18.9474H14.7257C15.5933 18.9496 16.4262 18.609 17.0405 18.0007C17.6548 17.3924 18 16.5664 18 15.705V7.45185C18 6.75605 17.6893 6.09604 17.1517 5.64963L10.8407 0.638781C9.73754 -0.237673 8.16193 -0.209361 7.09142 0.706153L0.916117 5.64963C0.353123 6.08288 0.0166285 6.74485 0 7.45185V15.6966C0 17.4919 1.46594 18.9474 3.27427 18.9474H5.08954C5.39922 18.9496 5.69699 18.829 5.91676 18.6124C6.13654 18.3958 6.26014 18.101 6.26013 17.7936H6.29406Z" fill="#000000"/>
</svg>
