<svg width="18" height="18" viewBox="0 0 18 18" fill="none" xmlns="http://www.w3.org/2000/svg">
<path opacity="0.4" d="M12.6684 0H15.7158C16.9778 0 18.0005 1.03126 18.0005 2.30395V5.37704C18.0005 6.64973 16.9778 7.68099 15.7158 7.68099H12.6684C11.4064 7.68099 10.3838 6.64973 10.3838 5.37704V2.30395C10.3838 1.03126 11.4064 0 12.6684 0Z" fill="#6B7280"/>
<path d="M5.33201 10.3189C6.59404 10.3189 7.61667 11.3502 7.61667 12.6229V15.6959C7.61667 16.9678 6.59404 17.9999 5.33201 17.9999H2.28466C1.02262 17.9999 0 16.9678 0 15.6959V12.6229C0 11.3502 1.02262 10.3189 2.28466 10.3189H5.33201ZM15.7152 10.3189C16.9773 10.3189 17.9999 11.3502 17.9999 12.6229V15.6959C17.9999 16.9678 16.9773 17.9999 15.7152 17.9999H12.6679C11.4058 17.9999 10.3832 16.9678 10.3832 15.6959V12.6229C10.3832 11.3502 11.4058 10.3189 12.6679 10.3189H15.7152ZM5.33201 0C6.59404 0 7.61667 1.03126 7.61667 2.30395V5.37704C7.61667 6.64973 6.59404 7.68099 5.33201 7.68099H2.28466C1.02262 7.68099 0 6.64973 0 5.37704V2.30395C0 1.03126 1.02262 0 2.28466 0H5.33201Z" fill="#6B7280"/>
</svg>
